<?xml version="1.0" standalone="no"?>
<!DOCTYPE svg PUBLIC "-//W3C//DTD SVG 20010904//EN"
 "http://www.w3.org/TR/2001/REC-SVG-20010904/DTD/svg10.dtd">
<svg version="1.0" xmlns="http://www.w3.org/2000/svg"
 width="200.000000pt" height="48.000000pt" viewBox="0 0 200.000000 48.000000"
 preserveAspectRatio="xMidYMid meet">
<metadata>
Created by potrace 1.16, written by Peter Selinger 2001-2019
</metadata>
<g transform="translate(0.000000,48.000000) scale(0.100000,-0.100000)"
fill="#000000" stroke="none">
<path d="M151 473 c-13 -3 -48 -28 -76 -57 -43 -42 -55 -62 -64 -104 -19 -91
13 -197 72 -232 41 -25 88 -25 135 0 104 55 142 132 121 243 -15 79 -32 113
-67 131 -33 17 -88 26 -121 19z m81 -80 c22 -20 48 -97 48 -144 0 -70 -25
-100 -95 -114 -57 -11 -95 56 -95 166 0 58 8 75 50 103 28 18 64 14 92 -11z"/>
<path d="M1642 348 c-7 -9 -40 -21 -73 -27 -73 -15 -108 -35 -149 -86 -31 -39
-38 -81 -19 -116 17 -32 89 -79 121 -79 30 0 101 43 138 82 25 27 26 47 2 25
-24 -22 -86 -47 -117 -47 -16 0 -41 14 -67 38 -49 46 -46 69 14 113 68 49 125
34 112 -30 -5 -24 -3 -31 9 -31 16 0 40 24 31 32 -3 4 0 23 6 45 7 21 10 51 8
67 -3 25 -5 27 -16 14z"/>
<path d="M812 310 c-7 -13 -12 -59 -12 -127 0 -107 9 -149 25 -123 6 10 11 9
20 -3 11 -15 13 -15 29 2 13 14 14 24 7 43 -5 14 -11 47 -12 74 -3 45 -1 49
29 67 18 11 39 16 48 13 35 -13 55 -115 35 -169 -13 -33 7 -41 37 -17 20 16
21 24 17 103 -6 111 -16 137 -52 137 -16 0 -47 -11 -70 -25 -42 -23 -43 -23
-43 -3 0 14 -5 18 -15 14 -10 -4 -15 1 -15 14 0 26 -12 25 -28 0z"/>
<path d="M514 286 c-18 -8 -35 -20 -40 -27 -5 -9 -9 -8 -14 6 -10 29 -38 26
-64 -8 -24 -32 -24 -33 -10 -122 7 -50 13 -96 14 -104 0 -8 6 -11 16 -7 10 4
22 -1 30 -11 11 -16 14 -16 28 -3 14 13 14 24 6 65 -25 118 -25 130 4 143 38
17 59 15 88 -7 24 -19 24 -19 36 0 22 35 14 59 -23 75 -40 17 -32 17 -71 0z"/>
<path d="M1185 288 c-61 -33 -105 -96 -105 -153 0 -71 40 -103 133 -106 48 -2
60 2 94 29 24 19 44 45 51 68 10 32 8 43 -11 82 -12 25 -33 54 -47 63 -32 22
-90 30 -115 17z m48 -62 c36 -14 87 -69 87 -92 0 -23 -49 -47 -100 -48 -38 -1
-54 4 -74 23 -31 29 -33 55 -6 99 22 35 42 40 93 18z"/>
<path d="M1800 282 c-33 -16 -86 -87 -97 -131 -8 -32 21 -87 56 -105 16 -9 54
-16 84 -17 45 -2 61 2 85 22 64 51 76 102 42 169 -34 67 -106 93 -170 62z m96
-77 c45 -34 58 -59 44 -85 -11 -21 -61 -38 -100 -34 -14 1 -31 3 -37 3 -24 2
-53 41 -53 70 0 15 10 41 22 56 18 23 26 26 55 22 19 -4 50 -18 69 -32z"/>
<path d="M687 272 c-13 -14 -17 -38 -17 -99 0 -136 15 -168 60 -128 14 12 15
24 9 63 -4 26 -8 77 -8 115 -1 72 -12 84 -44 49z"/>
</g>
</svg>
