<svg width="300" height="300" xmlns="http://www.w3.org/2000/svg" xmlns:svg="http://www.w3.org/2000/svg" xmlns:xlink="http://www.w3.org/1999/xlink">
 <!-- Created with SVG-edit - https://github.com/SVG-Edit/svgedit-->
 <title>teddy</title>
 <defs>
  <symbol viewBox="0 0 720 314.779" id="svg_2" xmlns:xlink="http://www.w3.org/1999/xlink" xmlns="http://www.w3.org/2000/svg">
   <g id="svg_1">
    <path d="m171.035,169.258c27.898,11.403 31.391,24.604 26.097,34.467c-8.917,16.569 -27.282,2.296 -27.282,2.296c-2.125,11.987 -2.784,36.89 0,39.366s7.461,5.134 7.461,10.691c0,5.569 -26.911,11.553 -45.681,7.695c-4.537,-4.018 -5.28,-13.104 -11.381,-13.242c-6.111,0.138 -6.855,9.225 -11.394,13.242c-18.77,3.857 -45.68,-2.126 -45.68,-7.695c0,-5.558 4.676,-8.215 7.462,-10.691c2.784,-2.477 2.125,-27.379 0,-39.366c0,0 -18.367,14.273 -27.283,-2.296c-5.293,-9.863 -1.797,-23.063 26.102,-34.467c-13.093,-11.479 -19.593,-26.906 -19.593,-49.98c0,-17.038 8.179,-31.496 13.822,-39.956c-8.098,-2.817 -14.645,-14.975 -5.515,-24.105c9.119,-9.129 21.66,-1.552 23.956,5.484c10.861,-7.387 23.976,-11.701 38.112,-11.701l0.011,0c14.135,0 27.25,4.314 38.112,11.701c2.296,-7.036 14.838,-14.614 23.967,-5.484c9.119,9.13 2.584,21.278 -5.515,24.105c5.643,8.46 13.821,22.917 13.821,39.956c0,23.074 -6.506,38.5 -19.599,49.98z" fill="#B97D6D" id="svg_6"/>
    <path d="m120.249,143.325c4.698,0 11.223,1.594 10.479,6.377c-0.733,4.772 -8.779,8.492 -10.479,8.502l-0.011,0c-1.701,-0.011 -9.735,-3.73 -10.479,-8.502c-0.744,-4.783 5.782,-6.377 10.479,-6.377l0.011,0z" fill="#433739" id="svg_7"/>
    <path d="m154.694,178.663c-5.697,2.073 -12.244,3.529 -19.694,4.337c-4.56,0.499 -9.481,0.754 -14.751,0.754l-0.011,0c-5.272,0 -10.192,-0.255 -14.752,-0.754c-7.45,-0.808 -13.997,-2.264 -19.693,-4.337c-0.988,11.648 -2.115,22.84 -1.679,32.586c0.882,19.769 8.172,33.659 36.136,33.659c27.952,0 35.253,-13.891 36.125,-33.659c0.435,-9.756 -0.692,-20.937 -1.681,-32.586z" fill="#D7A697" id="svg_8"/>
    <g id="svg_9">
     <g id="svg_10">
      <g id="svg_11">
       <path d="m90.93,114.99c10.393,0 18.828,8.431 18.828,18.831c0,10.395 -8.435,18.829 -18.828,18.829c-10.4,0 -18.834,-8.434 -18.834,-18.829c0,-10.4 8.434,-18.831 18.834,-18.831z" fill="#FFFFFF" id="svg_12"/>
       <path d="m85.794,141.519c2.836,0 5.136,-2.297 5.136,-5.13c0,-2.841 -2.3,-5.136 -5.136,-5.136c-2.838,0 -5.133,2.295 -5.133,5.136c0,2.833 2.295,5.13 5.133,5.13z" fill="#433739" id="svg_13"/>
      </g>
      <g id="svg_14">
       <path d="m153.821,114.99c10.396,0 18.833,8.429 18.833,18.831c0,10.397 -8.437,18.831 -18.833,18.831c-10.398,0 -18.83,-8.434 -18.83,-18.831c0,-10.403 8.432,-18.831 18.83,-18.831z" fill="#FFFFFF" id="svg_15"/>
       <path d="m148.685,131.252c-2.835,0 -5.133,2.295 -5.133,5.136c0,2.833 2.298,5.13 5.133,5.13c2.837,0 5.137,-2.297 5.137,-5.13c-0.001,-2.841 -2.301,-5.136 -5.137,-5.136z" fill="#433739" id="svg_16"/>
      </g>
     </g>
     <path d="m145.175,154.905c-2.443,11.039 -23.823,14.969 -36.92,9.584" stroke-linejoin="round" stroke-linecap="round" stroke-width="3" stroke="#98675A" fill="none" id="svg_17"/>
    </g>
    <path d="m67.926,70.171c-3.444,0 -5.304,-4.166 -3.264,-7.354c1.86,-2.923 7.259,-3.369 8.949,1.329m98.949,6.025c3.443,0 5.303,-4.166 3.263,-7.354c-1.86,-2.923 -7.26,-3.369 -8.949,1.329" stroke-linejoin="round" stroke-linecap="round" stroke-width="0.5" stroke="#000000" fill="none" id="svg_18"/>
    <g id="svg_19">
     <path d="m165.64,175.655c-0.477,-0.479 -1.041,-0.925 -1.668,-1.328c-5.675,-3.625 -16.962,-3.337 -28.972,8.673c-4.56,0.499 -9.481,0.754 -14.751,0.754l-0.011,0c-5.272,0 -10.192,-0.255 -14.752,-0.754c-12.01,-12.01 -23.297,-12.298 -28.972,-8.673c-0.627,0.403 -1.19,0.85 -1.669,1.328c-4.633,4.634 -1.465,30.949 9.269,35.594c0.542,0.244 1.104,0.425 1.679,0.542c9.375,1.924 18.63,-9.374 22.309,-14.539c2.263,3.592 6.1,6.036 12.148,6.036c6.046,0 9.873,-2.444 12.137,-6.036c3.677,5.165 12.935,16.463 22.309,14.539c0.583,-0.117 1.137,-0.298 1.68,-0.542c10.742,-4.645 13.899,-30.96 9.264,-35.594z" fill="#7FC9B8" id="svg_20"/>
     <path d="m132.386,197.252c-2.265,3.592 -6.091,6.036 -12.137,6.036c-6.048,0 -9.885,-2.444 -12.148,-6.036c-2.488,-3.943 -3.072,-9.279 -2.605,-14.242l-0.01,-0.01c4.561,0.499 9.48,0.754 14.752,0.754l0.011,0c5.27,0 10.192,-0.255 14.751,-0.754l-0.012,0.01c0.469,4.963 -0.116,10.299 -2.602,14.242z" fill="#97D1C4" id="svg_21"/>
    </g>
   </g>
  </symbol>
 </defs>
 <g class="layer">
  <title>Layer 1</title>
  <g id="svg_4"/>
  <circle id="svg_5" r="91.24144" cy="144" cx="153" stroke-width="5" stroke="#000000" fill="#2c3e50"/>
  <use x="718.17419" y="423.68207" transform="matrix(1.2248888024956495,0,0,1.1209683778204498,-786.0522112164491,-497.89742932364044) " xlink:href="#svg_2" id="svg_3"/>
 </g>
</svg>